<svg width="164" height="23" viewBox="0 0 164 23" fill="none" xmlns="http://www.w3.org/2000/svg">
<path d="M118 9.37618V8H124V9.37618H121.847V15H120.159V9.37618H118Z" fill="#E3F4FF"/>
<path d="M126.824 15H125L127.367 8H129.633L132 15H130.176L128.534 9.76132H128.477L126.824 15ZM126.58 12.2476H130.38V13.5332H126.58V12.2476Z" fill="#E3F4FF"/>
<path d="M135 15V8H136.843V13.6294H140V15H135Z" fill="#E3F4FF"/>
<path d="M142 15V8H147V9.37618H143.734V10.809H146.751V12.1853H143.734V13.6294H147V15H142Z" fill="#E3F4FF"/>
<path d="M156 8V15H154.558L151.755 10.962H151.709V15H150V8H151.464L154.239 12.0324H154.296V8H156Z" fill="#E3F4FF"/>
<path d="M158 9.37618V8H164V9.37618H161.847V15H160.153V9.37618H158Z" fill="#E3F4FF"/>
<path d="M86.6713 7.58968C86.67 5.90752 86.0012 4.29461 84.8117 3.10514C83.6222 1.91567 82.0094 1.24685 80.3272 1.24551H70.0692V21.5235H73.6134V13.9288H76.5653L82.4537 21.5235H87.0106L81.0563 13.8984C82.5982 13.7068 84.0179 12.9612 85.0509 11.8006C86.084 10.64 86.6599 9.14342 86.6713 7.58968ZM83.0866 7.58968C83.088 8.32334 82.7982 9.02757 82.2808 9.54777C81.7635 10.068 81.0609 10.3616 80.3272 10.3643H73.6387V4.83022H80.3272C80.6896 4.83022 81.0484 4.90162 81.3832 5.0403C81.718 5.17897 82.0222 5.38222 82.2784 5.63846C82.5346 5.89469 82.7379 6.19887 82.8766 6.53366C83.0153 6.86845 83.0866 7.22731 83.0866 7.58968Z" fill="#E3F4FF"/>
<path d="M108.894 1.24551H104.008L95.6332 10.3339V1.24551H92.0485V21.5235H95.6332V15.6199L98.3269 12.7136L104.6 21.5235H109L100.808 10.02L108.894 1.24551Z" fill="#E3F4FF"/>
<path d="M58.024 1.24551L48.1964 21.5235H52.1963L58.0189 9.4681L60.348 14.2832L63.8314 21.5235H67.8313L59.9632 5.29605L58.024 1.24551Z" fill="#E3F4FF"/>
<path d="M30.9209 13.4275V1.24551H27.245V13.4275C27.2492 14.7154 27.5595 15.9838 28.1501 17.1282C28.7408 18.2726 29.5951 19.2602 30.6424 20.0097C31.7952 20.8486 33.1521 21.3626 34.5714 21.4982H34.7638V17.8021H34.617C33.5876 17.618 32.6549 17.0801 31.98 16.2814C31.3051 15.4826 30.9305 14.4732 30.9209 13.4275Z" fill="#E3F4FF"/>
<path d="M42.2825 13.4275C42.2729 14.4732 41.8983 15.4826 41.2234 16.2814C40.5485 17.0801 39.6158 17.618 38.5864 17.8021H38.4396V21.4982H38.632C40.0509 21.3612 41.4075 20.8473 42.561 20.0097C43.6074 19.2593 44.461 18.2715 45.0516 17.1273C45.6422 15.9831 45.953 14.7152 45.9584 13.4275V1.24551H42.2825V13.4275Z" fill="#E3F4FF"/>
<path d="M18.992 18.5616C20.0466 17.5573 20.8862 16.3492 21.4598 15.0106C22.0334 13.672 22.329 12.2308 22.3286 10.7744C22.3259 7.91771 21.1899 5.17875 19.1699 3.15873C17.1499 1.13872 14.4109 0.00268112 11.5542 0H10.7744C7.91812 0.00401828 5.17991 1.14043 3.16019 3.16016C1.14046 5.17988 0.00401828 7.91812 0 10.7744C0.00133575 13.633 1.13645 16.3743 3.15632 18.397C5.1762 20.4197 7.9159 21.5587 10.7744 21.564H11.3364L5.68593 15.7869C5.04359 15.1449 4.52825 14.3874 4.16698 13.5541C3.79431 12.6749 3.60316 11.7294 3.60498 10.7744C3.60632 8.87877 4.35998 7.06111 5.70042 5.72067C7.04087 4.38022 8.8585 3.62659 10.7542 3.62525H11.5339C12.2075 3.62641 12.8775 3.72356 13.5237 3.91382H13.5896H13.6554H13.6959C14.8212 4.2704 15.8405 4.90067 16.6623 5.74811C17.4841 6.59554 18.0828 7.63364 18.4046 8.76938C18.5891 9.40793 18.6828 10.0692 18.6831 10.7339C18.6831 10.9769 18.6831 11.2402 18.6477 11.4832C18.6456 11.5051 18.6456 11.5272 18.6477 11.5491C18.6452 11.5692 18.6452 11.5896 18.6477 11.6098C18.6173 11.8528 18.5869 12.0402 18.5515 12.2174L18.5211 12.3339C18.5211 12.3643 18.5211 12.3946 18.4958 12.425C18.4553 12.6022 18.4148 12.7591 18.3641 12.9313C18.3641 12.987 18.3287 13.0377 18.3084 13.0883C18.2936 13.1192 18.2817 13.1513 18.273 13.1845C18.2224 13.3161 18.1768 13.4477 18.1211 13.5743L18.0299 13.7667L17.9793 13.8731C17.9236 13.9845 17.8679 14.1009 17.8072 14.2123L17.6806 14.4199L17.6249 14.506C17.5641 14.6073 17.4983 14.7085 17.4325 14.8098C17.3667 14.911 17.3161 14.9667 17.2553 15.0427C17.1793 15.149 17.0983 15.2452 17.0173 15.3414C16.9363 15.4376 16.8806 15.4933 16.7996 15.5794C16.7186 15.6655 16.6275 15.7616 16.5313 15.8578L16.4857 15.9034L16.4502 15.9389C15.5452 16.7769 14.4397 17.368 13.2402 17.6553H13.1744L17.8224 22.3691L18.116 22.6678H23.2551L18.992 18.5616Z" fill="#E3F4FF"/>
</svg>
