<svg width="138" height="153" viewBox="0 0 138 153" fill="none" xmlns="http://www.w3.org/2000/svg">
<path d="M19.1363 144.29C20.2292 148.818 24.8947 151.58 29.5522 150.456L91.4186 135.524C96.0762 134.4 98.9682 129.814 97.8753 125.286L86.6575 78.8079L7.91846 97.8122L19.1363 144.29ZM67.295 97.2242C67.0228 96.0964 67.7492 94.9446 68.9092 94.6646L75.9395 92.9678C77.0995 92.6878 78.2713 93.3815 78.5435 94.5093L80.1931 101.344C80.4653 102.472 79.739 103.624 78.579 103.904L71.5487 105.601C70.3887 105.881 69.2169 105.187 68.9447 104.059L67.295 97.2242ZM72.574 119.096C72.3018 117.968 73.0282 116.817 74.1882 116.537L81.2184 114.84C82.3784 114.56 83.5502 115.253 83.8224 116.381L85.4721 123.216C85.7443 124.344 85.0179 125.496 83.8579 125.776L76.8277 127.473C75.6677 127.753 74.4959 127.059 74.2237 125.931L72.574 119.096ZM44.7982 102.654C44.526 101.526 45.2523 100.374 46.4123 100.094L53.4426 98.3976C54.6026 98.1177 55.7744 98.8113 56.0466 99.9391L57.6963 106.774C57.9685 107.902 57.2421 109.054 56.0821 109.334L49.0518 111.03C47.8918 111.31 46.72 110.617 46.4478 109.489L44.7982 102.654ZM50.0771 124.526C49.8049 123.398 50.5313 122.246 51.6913 121.966L58.7216 120.27C59.8816 119.99 61.0534 120.683 61.3256 121.811L62.9752 128.646C63.2474 129.774 62.5211 130.926 61.3611 131.206L54.3308 132.902C53.1708 133.182 51.999 132.489 51.7268 131.361L50.0771 124.526ZM22.3013 108.084C22.0291 106.956 22.7555 105.804 23.9155 105.524L30.9457 103.827C32.1057 103.547 33.2775 104.241 33.5497 105.369L35.1994 112.204C35.4716 113.332 34.7452 114.483 33.5852 114.763L26.5549 116.46C25.395 116.74 24.2232 116.047 23.951 114.919L22.3013 108.084ZM27.5803 129.956C27.3081 128.828 28.0344 127.676 29.1944 127.396L36.2247 125.699C37.3847 125.419 38.5565 126.113 38.8287 127.241L40.4784 134.076C40.7506 135.204 40.0242 136.355 38.8642 136.635L31.8339 138.332C30.6739 138.612 29.5021 137.918 29.2299 136.791L27.5803 129.956ZM72.9422 58.9721L64.5059 61.0083L62.5263 52.8063C62.1633 51.3026 60.6009 50.3777 59.0543 50.751L53.4301 52.1085C51.8834 52.4818 50.9149 54.0175 51.2778 55.5212L53.2574 63.7232L30.7606 69.153L28.781 60.951C28.418 59.4473 26.8556 58.5224 25.309 58.8957L19.6848 60.2532C18.1381 60.6265 17.1696 62.1622 17.5325 63.6659L19.5121 71.8679L11.0758 73.9041C6.41826 75.0282 3.52619 79.6141 4.6191 84.1422L6.59872 92.3442L85.3378 73.3399L83.3581 65.1379C82.2652 60.6098 77.5998 57.848 72.9422 58.9721Z" fill="#0B2A3F"/>
<path d="M99.2399 72.9496C100.733 71.6422 102.195 70.2995 103.728 69.0391C104.519 68.3901 104.653 67.8822 103.963 67.0192C102.059 64.5925 100.261 62.0811 98.3831 59.6332C97.8596 58.949 97.7422 58.5186 98.4605 57.7944C102.636 53.5782 106.742 49.2938 110.869 45.0259C111.103 44.7908 111.298 44.5015 111.514 44.2382L111.418 43.8925L91.5828 45.5385C91.9231 36.9839 92.2588 28.5374 92.5945 20.0909L92.2799 19.8158L71.9213 34.7124L57.6916 20.3449C57.0836 22.0803 56.5555 23.4982 56.0837 24.935C54.1604 30.8058 52.2465 36.6798 50.342 42.5569C49.6965 44.5415 49.6848 44.565 47.6707 44.4498C43.3093 44.1982 38.9526 43.9184 34.5936 43.6409C33.2439 43.5539 33.1852 43.6033 33.2908 44.9366C33.4716 47.1164 33.6617 49.2962 33.8377 51.4783C33.8777 51.9698 33.8847 52.4636 33.9082 52.9551L33.5936 53.0679L23 35.0016C24.6197 35.0016 25.9694 34.9734 27.3168 34.9804C32.15 35.0063 36.9856 35.011 41.8188 35.0933C42.8962 35.1121 43.3727 34.8417 43.6356 33.7036C44.8539 28.4104 46.1943 23.1432 47.4876 17.8641C48.7537 12.7003 50.0181 7.53645 51.281 2.37263C51.3866 1.93526 51.5321 1.50494 51.727 0.848877C53.3021 2.53958 54.7386 4.06569 56.1564 5.60825C61.3895 11.3035 66.6147 17.0042 71.8321 22.7105C72.4119 23.3454 72.8109 23.2513 73.386 22.774C77.8726 19.0649 82.3655 15.3668 86.8646 11.6797C91.3261 8.00675 95.7861 4.33454 100.245 0.663116C100.505 0.449132 100.806 0.286879 101.242 0C101.242 1.85061 101.242 3.51544 101.216 5.17323C101.135 14.6606 101.052 24.1496 100.968 33.6401C100.951 35.7941 100.991 35.7564 103.108 35.7564C112.468 35.7423 121.825 35.7384 131.18 35.7447C132.36 35.7044 133.54 35.7888 134.701 35.9963C132.667 37.6345 130.64 39.2734 128.619 40.9132C121.53 46.6179 114.437 52.3163 107.338 58.0084C106.634 58.5633 106.507 58.949 107.127 59.6897C110.031 63.1698 112.88 66.6923 115.749 70.2031C115.892 70.3794 116.019 70.5699 116.261 70.9085L99.3596 73.1706L99.2399 72.9496Z" fill="#0B2A3F"/>
<rect x="103.445" y="81" width="11.1584" height="11.1584" rx="2" transform="rotate(17.9822 103.445 81)" fill="#0B2A3F"/>
<rect x="117" y="94.9656" width="11.1584" height="11.1584" rx="2" transform="rotate(-10.1461 117 94.9656)" fill="#0B2A3F"/>
<rect x="130.772" y="66" width="11.1584" height="11.1584" rx="2" transform="rotate(51.8297 130.772 66)" fill="#0B2A3F"/>
</svg>
