<svg width="120" height="164" viewBox="0 0 120 164" fill="none" xmlns="http://www.w3.org/2000/svg">
<path d="M66.9625 104.344L24.3197 113.035C20.8049 113.751 17.5364 115.397 14.8053 117.828C12.0741 120.258 9.96497 123.397 8.66567 126.964C7.36638 130.532 6.91723 134.418 7.35822 138.277C7.79921 142.135 9.11664 145.846 11.1932 149.08C13.2698 152.313 16.0412 154.968 19.2605 156.809C22.4798 158.65 26.0472 159.619 29.6451 159.63C33.243 159.642 36.7598 158.695 39.8823 156.874C43.0049 155.053 45.6363 152.415 47.5423 149.194L59.7355 146.709C62.7497 148.926 66.2033 150.324 69.789 150.778C73.3747 151.231 76.9812 150.727 80.2874 149.309C83.5936 147.891 86.4971 145.603 88.7393 142.65C90.9815 139.697 92.493 136.169 93.1391 132.382C93.7852 128.594 93.5459 124.664 92.4426 120.941C91.3393 117.218 89.4062 113.817 86.8152 111.042C84.2243 108.267 81.056 106.203 77.5923 105.034C74.1286 103.866 70.477 103.628 66.9625 104.344ZM41.1043 135.472C41.1979 135.932 41.1193 136.407 40.8857 136.793C40.6521 137.179 40.2826 137.444 39.8586 137.53L32.9307 138.943L34.4605 146.448C34.5542 146.908 34.4755 147.383 34.2419 147.769C34.0083 148.155 33.6389 148.42 33.2148 148.506L30.0173 149.158C29.5933 149.244 29.1495 149.145 28.7834 148.881C28.4174 148.617 28.1592 148.211 28.0655 147.752L26.5357 140.246L19.6077 141.658C19.1837 141.745 18.7399 141.645 18.3738 141.381C18.0078 141.117 17.7496 140.711 17.6559 140.252L16.9498 136.788C16.8562 136.328 16.9348 135.853 17.1685 135.467C17.4021 135.081 17.7715 134.816 18.1955 134.73L25.1235 133.318L23.5936 125.812C23.4999 125.352 23.5786 124.878 23.8122 124.492C24.0458 124.106 24.4153 123.84 24.8393 123.754L28.0368 123.102C28.4608 123.016 28.9046 123.115 29.2707 123.379C29.6367 123.643 29.895 124.049 29.9886 124.508L31.5185 132.014L38.4464 130.602C38.8704 130.516 39.3143 130.615 39.6803 130.879C40.0463 131.143 40.3046 131.549 40.3982 132.008L41.1043 135.472ZM72.1178 140.577C71.0638 140.792 69.9644 140.663 68.9587 140.207C67.9531 139.751 67.0862 138.989 66.4678 138.016C65.8494 137.043 65.5073 135.904 65.4846 134.742C65.462 133.58 65.7598 132.448 66.3405 131.489C66.9213 130.529 67.7587 129.786 68.7471 129.352C69.7354 128.919 70.8303 128.815 71.8931 129.053C72.956 129.292 73.9391 129.862 74.7182 130.692C75.4973 131.522 76.0374 132.575 76.2701 133.717C76.5823 135.248 76.3201 136.831 75.5414 138.118C74.7627 139.404 73.5312 140.289 72.1178 140.577ZM77.8201 124.982C76.7661 125.197 75.6667 125.068 74.661 124.612C73.6553 124.157 72.7885 123.394 72.1701 122.421C71.5517 121.449 71.2095 120.309 71.1869 119.147C71.1642 117.985 71.4621 116.853 72.0428 115.894C72.6235 114.934 73.461 114.191 74.4494 113.758C75.4377 113.324 76.5325 113.22 77.5954 113.458C78.6582 113.697 79.6414 114.267 80.4205 115.097C81.1996 115.928 81.7397 116.98 81.9724 118.122C82.2845 119.653 82.0224 121.236 81.2437 122.523C80.465 123.809 79.2335 124.694 77.8201 124.982Z" fill="#0B2A3F"/>
<path d="M83.5499 64.8894C84.847 64.0799 86.1253 63.2397 87.447 62.4709C88.1289 62.0752 88.2935 61.7055 87.8751 60.9641C86.7268 58.8837 85.6693 56.7519 84.5433 54.6586C84.2296 54.0736 84.1935 53.7319 84.8294 53.27C88.5268 50.5805 92.1791 47.8303 95.8454 45.0953C96.053 44.9456 96.237 44.7497 96.4338 44.5762L96.4033 44.3015L81.1118 43.1014C82.4275 36.639 83.7264 30.2584 85.0252 23.8777L84.8199 23.6296L67.4932 32.4397L58.444 19.7568C57.7671 21.0012 57.1902 22.014 56.6538 23.0481C54.4655 27.2742 52.284 31.5038 50.1092 35.737C49.373 37.1662 49.3611 37.1826 47.8433 36.8461C44.5568 36.1157 41.2773 35.3645 37.9958 34.6147C36.9798 34.3818 36.9291 34.4121 36.8447 35.4389C36.7129 37.1186 36.5882 38.7995 36.4526 40.4804C36.4222 40.859 36.3666 41.2353 36.3237 41.6119L36.0705 41.6589L30.2441 26.613C31.4762 26.8132 32.5064 26.9586 33.5304 27.1305C37.2037 27.7475 40.8815 28.3488 44.5478 29.0087C45.3651 29.1562 45.761 29.0095 46.1016 28.1766C47.6822 24.3026 49.3525 20.4634 50.9886 16.6094C52.5896 12.8396 54.1893 9.06965 55.7879 5.2995C55.9223 4.98001 56.0862 4.67081 56.3155 4.19606C57.3047 5.67624 58.2089 7.01416 59.0969 8.36227C62.3739 13.3394 65.6443 18.3197 68.9081 23.3032C69.2707 23.8576 69.5859 23.8354 70.0823 23.5436C73.9534 21.278 77.8279 19.0215 81.7058 16.7741C85.5533 14.5329 89.3996 12.292 93.2446 10.0515C93.4693 9.92105 93.7179 9.83482 94.0854 9.67066C93.8568 11.0777 93.6511 12.3436 93.4267 13.6009C92.1927 20.8044 90.9573 28.009 89.7205 35.2145C89.4419 36.8502 89.4769 36.8265 91.0875 37.0882C98.2089 38.2344 105.327 39.3879 112.443 40.549C113.345 40.6641 114.232 40.8741 115.09 41.1755C113.34 42.1696 111.595 43.1652 109.856 44.1623C103.759 47.6235 97.6588 51.0795 91.556 54.53C90.9518 54.8649 90.8077 55.1425 91.1876 55.7823C92.9664 58.7873 94.6989 61.8178 96.4472 64.8417C96.5343 64.9934 96.6072 65.1539 96.7493 65.4413L83.6136 65.0723L83.5499 64.8894Z" fill="#0B2A3F"/>
<path d="M48.0287 110.5C49.5287 100.167 47.6287 78.2999 28.0287 73.4999C8.42867 68.6999 1.02849 83 7.02868 92.9999C13.5287 101.167 38.0288 104 60.0288 84C71.6962 73.3933 76.0288 63.5 68.0288 57" stroke="#0B2A3F" stroke-width="9"/>
<path d="M64.4511 57.9238C63.8703 57.4567 62.1291 56.458 59.811 56.2006C56.9133 55.8788 53.4477 59.1175 52.5386 59.5342" stroke="#0B2A3F" stroke-width="3"/>
<path d="M52.1165 44.7524C53.0146 45.1123 56.4358 49.9694 58.823 49.6748C61.8071 49.3064 64.4868 51.4977 67.7024 54.1272" stroke="#0B2A3F" stroke-width="3"/>
</svg>
